PathFileType	4	(X/Y/Z)	C:/Users/rsk02/Documents/GitHub/TechForParalysis/Code/Model/04122019 - Marker Volunteer01/Rosti Data/New Session 109.trc	
DataRate	CameraRate	NumFrames	NumMarkers	Units	OrigDataRate	OrigDataStartFrame	OrigNumFrames	
100.00	100.00	20	14	mm	100.00	856	1141	
Frame#	Time	C7			PX			T8			IJ			SC			AC			AI			TS			AA			GH			LE			ME			US			RS			
		X1	Y1	Z1	X2	Y2	Z2	X3	Y3	Z3	X4	Y4	Z4	X5	Y5	Z5	X6	Y6	Z6	X7	Y7	Z7	X8	Y8	Z8	X9	Y9	Z9	X10	Y10	Z10	X11	Y11	Z11	X12	Y12	Z12	X13	Y13	Z13	X14	Y14	Z14	

856	8.550	667.15985	4.58820	1544.35608	456.74896	-20.22745	1278.39331	752.71552	3.41734	1337.31213	511.35654	-27.12075	1427.42395	513.66241	-2.22913	1436.70337	567.88458	125.37643	1513.14734	702.08533	89.76819	1477.79309	732.48688	95.47062	1359.95056	620.96765	197.51508	1476.17212	581.54620	193.11275	1499.22876	362.66702	287.89526	1330.94678	350.39200	217.74367	1268.30737	81.64461	260.56906	1334.02515	92.06639	246.77756	1410.57751 
857	8.560	666.97449	4.52666	1544.34827	456.84866	-19.86896	1278.36792	752.60883	3.08468	1337.32849	511.17795	-27.07219	1427.24011	513.45844	-2.09412	1436.58276	567.88055	125.75588	1512.82971	702.16455	89.39823	1477.68176	732.65668	95.06366	1359.88257	621.52759	197.40089	1475.74536	581.94965	193.57092	1498.58826	366.25482	288.96780	1326.39258	354.26871	218.81053	1263.63281	85.80983	260.31992	1330.86926	96.77297	246.80992	1407.40588 
858	8.570	666.81409	4.41622	1544.33228	457.03571	-19.42183	1278.35876	752.46637	2.77624	1337.32544	510.99231	-26.90452	1427.08972	513.29523	-1.90407	1436.48596	567.98859	126.07653	1512.61462	702.26825	89.01345	1477.56421	732.81226	94.65359	1359.78296	622.11786	197.17276	1475.24976	582.42468	193.94792	1497.96741	369.94220	289.96646	1321.94885	358.30115	219.71991	1259.06335	90.13811	259.95090	1327.77246	101.64600	246.82796	1404.28687 
859	8.580	666.68408	4.25012	1544.33374	457.18985	-18.98520	1278.37280	752.28558	2.49332	1337.31116	510.79150	-26.61763	1426.99780	513.16638	-1.64543	1436.40088	568.17664	126.35323	1512.49133	702.35760	88.66203	1477.41943	732.93591	94.22770	1359.64880	622.71252	196.87672	1474.70923	582.93756	194.26132	1497.36438	373.76450	290.90387	1317.52466	362.54779	220.51068	1254.52856	94.69164	259.46201	1324.72827	106.76246	246.77756	1401.21753 
860	8.590	666.57202	4.04262	1544.36633	457.22864	-18.62514	1278.40686	752.07422	2.23726	1337.29529	510.58398	-26.27487	1426.96887	513.04633	-1.33051	1436.32922	568.39429	126.60103	1512.44360	702.41742	88.33202	1477.25427	733.01581	93.77984	1359.48706	623.28357	196.59357	1474.17712	583.45789	194.55655	1496.80054	377.75891	291.78287	1313.02820	367.04431	221.21715	1249.96912	99.54378	258.93335	1321.72107	112.17654	246.62596	1398.19238 
861	8.600	666.45074	3.82328	1544.42639	457.12277	-18.36233	1278.44641	751.84979	2.00394	1337.28381	510.39105	-25.96686	1426.99255	512.89380	-1.00220	1436.29785	568.57874	126.84109	1512.43140	702.44629	87.99490	1477.10278	733.05267	93.32324	1359.31104	623.82239	196.34764	1473.71960	583.95605	194.85600	1496.27905	381.96262	292.59033	1308.38782	371.78085	221.84526	1245.34717	104.71670	258.41513	1318.73608	117.89800	246.38260	1395.19482 
862	8.610	666.28900	3.63059	1544.50098	456.88882	-18.18004	1278.46997	751.63422	1.78345	1337.27966	510.21768	-25.71525	1427.04834	512.67303	-0.71492	1436.33789	568.67395	127.10625	1512.38831	702.43616	87.65164	1476.99817	733.06006	92.89205	1359.13745	624.33093	196.14374	1473.37549	584.41113	195.16731	1495.77747	386.39908	293.31653	1303.56909	376.69882	222.37138	1240.65564	110.17078	257.91312	1315.75574	123.88888	246.05907	1392.18542 
863	8.620	666.06403	3.49806	1544.57361	456.56964	-18.04370	1278.46069	751.44147	1.56616	1337.28516	510.03024	-25.45487	1427.10437	512.40063	-0.51249	1436.43311	568.65326	127.42830	1512.25183	702.37341	87.32904	1476.95337	733.05878	92.51813	1358.98962	624.81097	195.99480	1473.13037	584.82263	195.51210	1495.27368	391.06192	293.97638	1298.59058	381.73999	222.78708	1235.92334	115.81218	257.40549	1312.75452	130.08174	245.65607	1389.11609 
864	8.630	665.77618	3.43688	1544.62610	456.21252	-17.92067	1278.41760	751.27014	1.34922	1337.30139	509.77902	-25.14304	1427.11951	512.12024	-0.40657	1436.52893	568.53674	127.81361	1512.00159	702.25671	87.05160	1476.95911	733.06671	92.20428	1358.89392	625.27509	195.90485	1472.92480	585.21027	195.90906	1494.75195	395.91995	294.60568	1293.52136	386.87366	223.11603	1231.19312	121.55809	256.87100	1309.71411	136.40926	245.18425	1385.96704 
865	8.640	665.45453	3.42412	1544.64868	455.85373	-17.79170	1278.35339	751.10541	1.13834	1337.32605	509.44916	-24.86343	1427.05371	511.84720	-0.34867	1436.57410	568.38574	128.24460	1511.66223	702.10638	86.82545	1476.99011	733.09290	91.93504	1358.86267	625.74518	195.85484	1472.69104	585.58850	196.33315	1494.18420	400.93304	295.23877	1288.46277	392.08591	223.38858	1226.50305	127.37431	256.29657	1306.62512	142.82756	244.66423	1382.76587 
866	8.650	665.14282	3.41563	1544.65015	455.51245	-17.65504	1278.28430	750.93024	0.94185	1337.35291	509.07108	-24.72437	1426.91064	511.57651	-0.26640	1436.55017	568.26544	128.68935	1511.27588	701.96155	86.63632	1477.00964	733.13580	91.69141	1358.88171	626.24109	195.80611	1472.39197	585.97778	196.73827	1493.54871	406.06476	295.87717	1283.51807	397.38132	223.62820	1221.88159	133.26309	255.66565	1303.48499	149.32298	244.10870	1379.55200 
867	8.660	664.87231	3.37859	1544.64771	455.19235	-17.52544	1278.22302	750.73468	0.76497	1337.37512	508.70291	-24.70994	1426.75439	511.31641	-0.14817	1436.47754	568.21332	129.09952	1510.87488	701.85114	86.44634	1476.97766	733.18549	91.45308	1358.91321	626.77673	195.72052	1472.02747	586.40100	197.08336	1492.83215	411.28720	296.49771	1278.75171	402.78030	223.84309	1217.34741	139.27522	254.97923	1300.30664	155.91048	243.51811	1376.34424 
868	8.670	664.63129	3.31591	1544.64697	454.88678	-17.42555	1278.17664	750.51813	0.60896	1337.38721	508.37598	-24.72612	1426.66382	511.05692	0.00785	1436.38977	568.23877	129.43289	1510.47986	701.77612	86.20544	1476.87048	733.22540	91.20270	1358.91357	627.35486	195.57675	1471.62378	586.87708	197.36714	1492.07849	416.58994	297.08176	1274.17578	408.31631	224.02106	1212.90674	145.47588	254.24155	1297.10120	162.62714	242.88293	1373.13477 
869	8.680	664.37537	3.25270	1544.64868	454.58383	-17.37392	1278.14819	750.28687	0.47202	1337.38794	508.07770	-24.70352	1426.69385	510.78204	0.19444	1436.32813	568.32941	129.69263	1510.11084	701.71124	85.88480	1476.69336	733.23627	90.92853	1358.85193	627.96722	195.37497	1471.21533	587.41840	197.64389	1491.40186	421.98816	297.61597	1269.75806	414.04123	224.13835	1208.55469	151.89366	253.42865	1293.85315	169.52232	242.17598	1369.90637 
870	8.690	664.06653	3.20691	1544.65491	454.27158	-17.37877	1278.13831	750.04895	0.34840	1337.37805	507.77673	-24.63765	1426.84827	510.47504	0.39125	1436.33435	568.43921	129.93230	1509.80664	701.62531	85.49947	1476.47424	733.20325	90.62671	1358.72083	628.59241	195.12790	1470.83215	588.01807	197.94829	1490.86340	427.52142	298.05298	1265.43188	420.01480	224.17493	1204.27747	158.53804	252.51601	1290.55383	176.64397	241.37047	1366.64380 
871	8.700	663.70581	3.17538	1544.66968	453.94193	-17.43726	1278.14563	749.80914	0.22952	1337.36023	507.44891	-24.55638	1427.08618	510.11520	0.58480	1436.43115	568.50073	130.22318	1509.61060	701.50330	85.09259	1476.25049	733.12048	90.30203	1358.53357	629.19220	194.84935	1470.48901	588.62427	198.24373	1490.41077	433.24655	298.35812	1261.12793	426.28397	224.12741	1200.06335	165.43205	251.50769	1287.23840	184.01797	240.46710	1363.33130 
872	8.710	663.34241	3.13337	1544.70520	453.59222	-17.53778	1278.16724	749.56781	0.10599	1337.33862	507.09732	-24.47140	1427.33240	509.73709	0.76214	1436.55835	568.47681	130.56990	1509.49487	701.34198	84.70990	1476.06140	732.99341	89.96358	1358.31494	629.73175	194.55559	1470.19141	589.16187	198.47000	1489.96289	439.22632	298.58649	1256.82178	432.87491	224.00471	1195.89832	172.61119	250.44467	1283.93567	191.63054	239.48337	1359.95190 
873	8.720	663.02637	3.06575	1544.76831	453.22549	-17.66495	1278.19983	749.32111	-0.03010	1337.31873	506.75519	-24.37049	1427.51392	509.44843	0.90042	1436.59229	568.36346	130.91394	1509.36694	701.13568	84.38454	1475.93237	732.83521	89.62344	1358.09534	630.19360	194.27194	1469.95007	589.59674	198.64636	1489.52588	445.49600	298.79718	1252.52698	439.77673	223.82471	1191.77673	180.08063	249.38336	1280.59460	199.42883	238.43439	1356.48914 
874	8.730	662.73969	3.00791	1544.83350	452.84830	-17.80510	1278.24023	749.06433	-0.18003	1337.30457	506.44757	-24.24485	1427.60205	509.27087	0.97999	1436.53052	568.15765	131.22836	1509.16479	700.88293	84.12685	1475.86462	732.66046	89.30081	1357.90601	630.58521	194.03008	1469.78284	589.93536	198.83598	1489.14441	452.04410	299.01807	1248.28662	446.92346	223.60701	1187.72717	187.76636	248.36200	1277.13904	207.33855	237.32953	1352.93115 
875	8.740	662.44550	2.99498	1544.88147	452.46710	-17.94955	1278.28528	748.79468	-0.33313	1337.29724	506.16830	-24.10904	1427.61267	509.11575	1.00749	1436.45166	567.86816	131.53230	1508.88135	700.59033	83.92841	1475.84155	732.48108	89.01616	1357.77173	630.92645	193.84631	1469.70056	590.20575	199.06458	1488.82617	458.82632	299.27856	1244.17456	454.22647	223.38062	1183.80481	195.54285	247.37120	1273.53357	215.29114	236.18210	1349.27795 
